<svg width="15" height="15" viewBox="0 0 15 15" fill="none" xmlns="http://www.w3.org/2000/svg">
<path fill-rule="evenodd" clip-rule="evenodd" d="M7.5 15C3.364 15 0 11.636 0 7.5C0 3.364 3.364 0 7.5 0C11.636 0 15 3.364 15 7.5C15 11.636 11.636 15 7.5 15ZM13.825 8.527C13.606 8.457 11.842 7.931 9.835 8.253C10.673 10.555 11.014 12.431 11.079 12.82C12.517 11.849 13.54 10.309 13.825 8.527ZM10.002 13.407C9.907 12.845 9.535 10.886 8.636 8.549C8.622 8.554 8.608 8.558 8.593 8.563C4.98 9.822 3.683 12.328 3.568 12.564C4.654 13.411 6.019 13.916 7.5 13.916C8.387 13.916 9.233 13.735 10.002 13.407ZM2.74 11.793C2.886 11.545 4.644 8.634 7.948 7.566C8.031 7.539 8.116 7.513 8.2 7.489C8.039 7.125 7.864 6.761 7.681 6.402C4.482 7.36 1.377 7.32 1.097 7.314C1.095 7.379 1.094 7.444 1.094 7.51C1.094 9.155 1.717 10.657 2.74 11.793ZM1.229 6.198C1.515 6.201 4.155 6.213 7.151 5.417C6.09 3.53 4.945 1.944 4.776 1.712C2.984 2.557 1.644 4.21 1.229 6.198ZM5.999 1.281C6.176 1.518 7.339 3.103 8.389 5.032C10.667 4.178 11.631 2.882 11.747 2.718C10.615 1.714 9.128 1.103 7.5 1.103C6.983 1.103 6.48 1.165 5.999 1.281ZM12.459 3.458C12.324 3.641 11.25 5.017 8.882 5.984C9.031 6.29 9.174 6.6 9.307 6.912C9.354 7.023 9.4 7.133 9.445 7.243C11.576 6.975 13.694 7.404 13.906 7.449C13.891 5.937 13.351 4.549 12.459 3.458Z" fill="#4F5362"/>
</svg>
