<svg width="17" height="14" viewBox="0 0 17 14" fill="none" xmlns="http://www.w3.org/2000/svg">
<path fill-rule="evenodd" clip-rule="evenodd" d="M17 1.65798C16.375 1.93898 15.702 2.12898 14.997 2.21498C15.717 1.77698 16.27 1.08498 16.53 0.259977C15.856 0.664977 15.11 0.958977 14.315 1.11698C13.679 0.429977 12.773 0.000976563 11.77 0.000976563C9.844 0.000976563 8.282 1.58298 8.282 3.53498C8.282 3.81298 8.313 4.08198 8.373 4.34098C5.475 4.19398 2.905 2.78598 1.186 0.647977C0.885999 1.16998 0.713999 1.77698 0.713999 2.42498C0.713999 3.65098 1.33 4.73298 2.265 5.36598C1.693 5.34798 1.155 5.18898 0.685999 4.92398C0.685999 4.93898 0.685999 4.95398 0.685999 4.96898C0.685999 6.68098 1.887 8.10898 3.483 8.43398C3.19 8.51498 2.883 8.55798 2.564 8.55798C2.34 8.55798 2.121 8.53598 1.908 8.49398C2.352 9.89798 3.64 10.92 5.166 10.949C3.972 11.896 2.468 12.461 0.833999 12.461C0.552999 12.461 0.274999 12.445 0.0019989 12.412C1.545 13.415 3.378 14 5.348 14C11.762 14 15.27 8.61498 15.27 3.94498C15.27 3.79098 15.266 3.63998 15.26 3.48798C15.941 2.98998 16.533 2.36698 17 1.65898V1.65798Z" fill="#4F5362"/>
</svg>
